<svg t="1675763785699" class="icon" viewBox="0 0 1024 1024" version="1.1" xmlns="http://www.w3.org/2000/svg" p-id="3439"><path d="M512 64C264.576 64 64 264.576 64 512s200.576 448 448 448 448-200.576 448-448S759.424 64 512 64z m301.264 333.245L493.637 716.872c-0.127 0.129-0.245 0.264-0.373 0.392-12.499 12.499-28.882 18.747-45.265 18.745-16.382 0.003-32.765-6.246-45.265-18.745-0.128-0.128-0.246-0.263-0.373-0.392L210.736 525.245c-24.994-24.994-24.994-65.516 0-90.51 24.993-24.993 65.516-24.993 90.51 0L448 581.49l274.755-274.755c24.994-24.993 65.516-24.993 90.51 0 24.993 24.994 24.993 65.517-0.001 90.51z" p-id="3440"></path></svg>